<?xml version="1.0" encoding="UTF-8"?>
<svg version="1.1" xmlns="http://www.w3.org/2000/svg" width="204" height="192">
<path d="M0 0 C67.32 0 134.64 0 204 0 C204 63.36 204 126.72 204 192 C136.68 192 69.36 192 0 192 C0 128.64 0 65.28 0 0 Z " fill="#FEFEFE" transform="translate(0,0)"/>
<path d="M0 0 C3.25875 -0.04125 6.5175 -0.0825 9.875 -0.125 C11.41389893 -0.15231201 11.41389893 -0.15231201 12.98388672 -0.18017578 C13.79100098 -0.1851709 14.59811523 -0.19016602 15.4296875 -0.1953125 C16.25710449 -0.20578613 17.08452148 -0.21625977 17.93701172 -0.22705078 C20 0 20 0 22 2 C22.25 4.5 22.25 4.5 22 7 C20 9 20 9 16.3046875 9.1953125 C14.82799892 9.182009 13.35137642 9.15814835 11.875 9.125 C11.12089844 9.11597656 10.36679688 9.10695313 9.58984375 9.09765625 C7.72642746 9.0740687 5.86317407 9.03819719 4 9 C4 10.65 4 12.3 4 14 C10.27 14 16.54 14 23 14 C21.02 17.63 19.04 21.26 17 25 C23.27 25 29.54 25 36 25 C36 23.35 36 21.7 36 20 C33.69 20 31.38 20 29 20 C29.59925491 17.11694872 30.45146232 15.00340943 32.06640625 12.546875 C32.46923828 11.928125 32.87207031 11.309375 33.28710938 10.671875 C33.70798828 10.03765625 34.12886719 9.4034375 34.5625 8.75 C35.19961914 7.77546875 35.19961914 7.77546875 35.84960938 6.78125 C36.8947306 5.18421082 37.94669837 3.5916558 39 2 C42.63939271 3.2131309 43.0965426 4.23968225 45.13671875 7.40234375 C45.71357422 8.29244141 46.29042969 9.18253906 46.88476562 10.09960938 C47.77711914 11.50436523 47.77711914 11.50436523 48.6875 12.9375 C49.59725586 14.33645508 49.59725586 14.33645508 50.52539062 15.76367188 C55 22.7247346 55 22.7247346 55 25 C57.97 25 60.94 25 64 25 C64 51.73 64 78.46 64 106 C-3.32 106 -70.64 106 -140 106 C-140 79.27 -140 52.54 -140 25 C-138.02 25 -136.04 25 -134 25 C-134 18.4 -134 11.8 -134 5 C-133.34 5 -132.68 5 -132 5 C-130.45908595 6.69588264 -128.99076703 8.45821672 -127.5625 10.25 C-126.78003906 11.22453125 -125.99757813 12.1990625 -125.19140625 13.203125 C-123.88128269 14.87522566 -122.60018771 16.57171226 -121.3828125 18.3125 C-119.50546087 20.60350538 -117.86995046 20.68973509 -115 21 C-114.92652344 20.45859375 -114.85304688 19.9171875 -114.77734375 19.359375 C-113.69095941 16.06200747 -111.7672898 13.91691374 -109.5625 11.25 C-108.35787109 9.77273437 -108.35787109 9.77273437 -107.12890625 8.265625 C-106.07509766 7.14414063 -106.07509766 7.14414063 -105 6 C-104.34 6 -103.68 6 -103 6 C-103 12.27 -103 18.54 -103 25 C-94.09 25 -85.18 25 -76 25 C-76 23.35 -76 21.7 -76 20 C-78.64 20 -81.28 20 -84 20 C-82.16753428 16.01287679 -79.76144225 12.41915496 -77.375 8.75 C-76.95476562 8.1003125 -76.53453125 7.450625 -76.1015625 6.78125 C-75.06954327 5.18631119 -74.03501972 3.59299331 -73 2 C-69.61800441 3.12733186 -69.3482338 3.58342509 -67.58984375 6.4921875 C-67.15736328 7.19730469 -66.72488281 7.90242188 -66.27929688 8.62890625 C-65.61510742 9.74072266 -65.61510742 9.74072266 -64.9375 10.875 C-64.05095152 12.33083287 -63.16423893 13.78656582 -62.27734375 15.2421875 C-61.88796631 15.8904248 -61.49858887 16.53866211 -61.09741211 17.20654297 C-60.10449084 18.82923477 -59.05524643 20.41713035 -58 22 C-58 22.99 -58 23.98 -58 25 C-52.39 25 -46.78 25 -41 25 C-41 17.08 -41 9.16 -41 1 C-35.8334375 0.9690625 -35.8334375 0.9690625 -30.5625 0.9375 C-29.47525635 0.928396 -28.3880127 0.91929199 -27.26782227 0.90991211 C-25.99249634 0.90616577 -25.99249634 0.90616577 -24.69140625 0.90234375 C-23.37958374 0.89448853 -23.37958374 0.89448853 -22.04125977 0.88647461 C-20 1 -20 1 -19 2 C-18.875 4.5 -18.875 4.5 -19 7 C-20 8 -20 8 -23.81640625 8.09765625 C-25.39846682 8.09098089 -26.98051159 8.07901875 -28.5625 8.0625 C-29.36880859 8.05798828 -30.17511719 8.05347656 -31.00585938 8.04882812 C-33.00393756 8.03700518 -35.00197783 8.01906914 -37 8 C-37 9.98 -37 11.96 -37 14 C-33.56153253 13.91918418 -30.12484688 13.80633848 -26.6875 13.6875 C-25.71103516 13.66494141 -24.73457031 13.64238281 -23.72851562 13.61914062 C-22.79072266 13.58369141 -21.85292969 13.54824219 -20.88671875 13.51171875 C-19.59060669 13.47244263 -19.59060669 13.47244263 -18.26831055 13.43237305 C-15.559928 12.91611586 -14.65399517 12.17021023 -13 10 C-12.42676193 7.72838745 -12.42676193 7.72838745 -12.3125 5.3125 C-12.24675781 4.50425781 -12.18101563 3.69601563 -12.11328125 2.86328125 C-12.07589844 2.24839844 -12.03851563 1.63351563 -12 1 C-10.68 1 -9.36 1 -8 1 C-8 8.92 -8 16.84 -8 25 C-5.36 25 -2.72 25 0 25 C0 16.75 0 8.5 0 0 Z " fill="#FEFEFE" transform="translate(140,86)"/>
<path d="M0 0 C7 0 7 0 9.4765625 2.1953125 C10.18554688 3.16210938 10.89453125 4.12890625 11.625 5.125 C12.37910156 6.12402344 13.13320312 7.12304688 13.91015625 8.15234375 C14.59980469 9.09207031 15.28945312 10.03179687 16 11 C17.00923226 12.23870966 18.0272645 13.47043844 19.0625 14.6875 C19.701875 15.450625 20.34125 16.21375 21 17 C24.84791078 15.71736307 25.93204705 13.91033525 28.4375 10.75 C29.19933594 9.79609375 29.96117188 8.8421875 30.74609375 7.859375 C33.02191344 5.06406418 33.02191344 5.06406418 34.84765625 2.140625 C37 0 37 0 44 0 C44 8.25 44 16.5 44 25 C45.32 25 46.64 25 48 25 C48.32677734 24.01193359 48.32677734 24.01193359 48.66015625 23.00390625 C50.45977304 18.96919689 52.90290872 15.54276608 55.4375 11.9375 C55.92798828 11.23044922 56.41847656 10.52339844 56.92382812 9.79492188 C57.86710445 8.43920084 58.82029436 7.0903075 59.78466797 5.74951172 C61.10105677 3.92412629 61.10105677 3.92412629 62.34765625 1.50390625 C64 0 64 0 67.66796875 -0.99609375 C70.92146335 -0.82861805 71.84677325 -0.16412826 74.10009766 2.24951172 C76.30807791 5.40384343 78.34023693 8.63369259 80.3125 11.9375 C81.69232819 14.18363628 83.08905999 16.41812487 84.48828125 18.65234375 C85.09196533 19.65257568 85.69564941 20.65280762 86.31762695 21.68334961 C87.85700373 24.2755592 87.85700373 24.2755592 91 25 C91 18.73 91 12.46 91 6 C87.7 6 84.4 6 81 6 C81 4.02 81 2.04 81 0 C91.8830837 -0.09264076 102.76607374 -0.16373496 113.64947128 -0.20724869 C118.7029792 -0.22813214 123.75621755 -0.25646371 128.80957031 -0.30175781 C133.68547468 -0.34518839 138.5611196 -0.3691314 143.43720245 -0.37950897 C145.29838394 -0.38690535 147.15955108 -0.40134866 149.02062225 -0.42292023 C151.62571504 -0.45191744 154.22973298 -0.45595759 156.83496094 -0.45410156 C157.60604187 -0.46848267 158.3771228 -0.48286377 159.17156982 -0.49768066 C162.67721537 -0.47061808 164.62544779 -0.28227136 167.46343994 1.85650635 C169.19145234 4.26707507 169.67479962 6.07319654 170 9 C170.3403125 8.3503125 170.680625 7.700625 171.03125 7.03125 C174.75706215 0.61016949 174.75706215 0.61016949 177.93359375 -0.94921875 C180.4115981 -1.24387424 181.72849593 -1.05589447 184 0 C186.89039311 2.98071789 188.85340076 6.46442478 191 10 C192.14528301 11.68081814 193.31695799 13.34084908 194.49267578 15.00048828 C197.93249807 19.85728682 201.19031398 24.74710874 204 30 C200.83796542 30.58865549 198.14428001 30.75457604 195 30 C192.1945089 27.32897191 190.51494814 24.13926451 188.6875 20.75 C187.69588078 19.01306284 186.69991651 17.27859767 185.69921875 15.546875 C185.2407959 14.74314453 184.78237305 13.93941406 184.31005859 13.11132812 C182.82279937 10.71441837 181.15445686 8.821821 179 7 C178.74347656 7.71929687 178.48695313 8.43859375 178.22265625 9.1796875 C176.92884605 12.16413148 175.35684394 14.50443437 173.4375 17.125 C171.45648138 19.83500053 170.06538377 21.8038487 169 25 C171.31 25 173.62 25 176 25 C176 26.65 176 28.3 176 30 C169.73 30 163.46 30 157 30 C159 25 159 25 162 20 C156.06 19.67 150.12 19.34 144 19 C144 17.35 144 15.7 144 14 C145.14339844 13.93941406 146.28679687 13.87882812 147.46484375 13.81640625 C148.95574305 13.73201572 150.44662775 13.64736698 151.9375 13.5625 C152.69224609 13.52318359 153.44699219 13.48386719 154.22460938 13.44335938 C157.91944187 13.55961976 157.91944187 13.55961976 161 12 C161.16666667 9.5 161.16666667 9.5 161 7 C159.41596476 5.41596476 157.7228362 5.78025065 155.52734375 5.68359375 C154.71773193 5.64548584 153.90812012 5.60737793 153.07397461 5.56811523 C151.52141968 5.50346069 151.52141968 5.50346069 149.9375 5.4375 C146.658125 5.293125 143.37875 5.14875 140 5 C140 13.25 140 21.5 140 30 C137.36 30 134.72 30 132 30 C132 22.08 132 14.16 132 6 C130.68 6 129.36 6 128 6 C128.04640625 6.60328125 128.0928125 7.2065625 128.140625 7.828125 C128.17671875 8.62734375 128.2128125 9.4265625 128.25 10.25 C128.29640625 11.03890625 128.3428125 11.8278125 128.390625 12.640625 C128 15 128 15 126.65625 17.28125 C122.42318604 20.02029139 118.16941153 19.42031252 113.25 19.25 C111.77466797 19.22292969 111.77466797 19.22292969 110.26953125 19.1953125 C107.84536217 19.14824126 105.42317941 19.08250742 103 19 C103 17.02 103 15.04 103 13 C111.415 12.505 111.415 12.505 120 12 C120 10.35 120 8.7 120 7 C113.07 6.67 106.14 6.34 99 6 C99 13.92 99 21.84 99 30 C93.39 30 87.78 30 82 30 C81.01 28.02 80.02 26.04 79 24 C77.38214376 21.16480754 75.65981393 18.39774994 73.9375 15.625 C73.49083984 14.88894531 73.04417969 14.15289062 72.58398438 13.39453125 C72.15279297 12.69972656 71.72160156 12.00492188 71.27734375 11.2890625 C70.88796631 10.65693848 70.49858887 10.02481445 70.09741211 9.37353516 C69.73526611 8.92026855 69.37312012 8.46700195 69 8 C68.34 8 67.68 8 67 8 C65.41161749 10.24329396 63.9404021 12.47702375 62.5 14.8125 C61.69795976 16.08987081 60.89587785 17.36721545 60.09375 18.64453125 C59.4028125 19.75183594 58.711875 20.85914063 58 22 C57.34 22.99 56.68 23.98 56 25 C58.64 25 61.28 25 64 25 C64 26.65 64 28.3 64 30 C55.09 30 46.18 30 37 30 C37 23.73 37 17.46 37 11 C32.76145545 15.22522797 32.76145545 15.22522797 28.75 19.625 C28.24984375 20.19476563 27.7496875 20.76453125 27.234375 21.3515625 C25.79263086 23.09626096 25.79263086 23.09626096 25 26 C22.859375 26.39453125 22.859375 26.39453125 20 26 C17.84073342 23.93217777 16.08270672 22.0117278 14.25 19.6875 C13.75628906 19.09259766 13.26257812 18.49769531 12.75390625 17.88476562 C10.63884183 15.2916387 9.06596332 13.19788996 8 10 C7.34 10 6.68 10 6 10 C6 16.6 6 23.2 6 30 C4.02 30 2.04 30 0 30 C0 20.1 0 10.2 0 0 Z " fill="#156E3F" transform="translate(0,81)"/>
<path d="M0 0 C0.66 0 1.32 0 2 0 C0.50902342 3.7952131 -1.75700849 5.61042731 -5 8 C-3.63055898 5.05043472 -2.12169591 2.47531189 0 0 Z " fill="#D7E3DC" transform="translate(35,92)"/>
</svg>
